inDegrees=no
DataType=double
version=3
OpenSimVersion=4.4-2022-10-11-798caa840
endheader
time	elv_angle	shoulder_elv	shoulder_rot	elbow_flexion	pro_sup	deviation	flexion
3.6031277150	0.2616344683	0.7301523032	0.0000000000	1.1576892715	0.0000000000	0.0000000000	0.0000000000
3.6072980017	0.2604880332	0.7292472228	0.0000000000	1.1594994323	0.0000000000	0.0000000000	0.0000000000
3.6114682884	0.2593337755	0.7283359668	0.0000000000	1.1613219443	0.0000000000	0.0000000000	0.0000000000
3.6156385752	0.2581717804	0.7274186022	0.0000000000	1.1631566736	0.0000000000	0.0000000000	0.0000000000
3.6198088619	0.2570021337	0.7264951969	0.0000000000	1.1650034841	0.0000000000	0.0000000000	0.0000000000
3.6239791486	0.2558249227	0.7255658198	0.0000000000	1.1668622384	0.0000000000	0.0000000000	0.0000000000
3.6281494353	0.2546402355	0.7246305404	0.0000000000	1.1687327971	0.0000000000	0.0000000000	0.0000000000
3.6323197220	0.2534481614	0.7236894294	0.0000000000	1.1706150193	0.0000000000	0.0000000000	0.0000000000
3.6364900087	0.2522487909	0.7227425579	0.0000000000	1.1725087623	0.0000000000	0.0000000000	0.0000000000
3.6406602954	0.2510422152	0.7217899981	0.0000000000	1.1744138818	0.0000000000	0.0000000000	0.0000000000
3.6448305821	0.2498285267	0.7208318230	0.0000000000	1.1763302320	0.0000000000	0.0000000000	0.0000000000
3.6490008688	0.2486078190	0.7198681063	0.0000000000	1.1782576653	0.0000000000	0.0000000000	0.0000000000
3.6531711555	0.2473801862	0.7188989226	0.0000000000	1.1801960328	0.0000000000	0.0000000000	0.0000000000
3.6573414422	0.2461457239	0.7179243471	0.0000000000	1.1821451838	0.0000000000	0.0000000000	0.0000000000
3.6615117289	0.2449045283	0.7169444558	0.0000000000	1.1841049664	0.0000000000	0.0000000000	0.0000000000
3.6656820156	0.2436566966	0.7159593256	0.0000000000	1.1860752269	0.0000000000	0.0000000000	0.0000000000
3.6698523023	0.2424023271	0.7149690339	0.0000000000	1.1880558103	0.0000000000	0.0000000000	0.0000000000
3.6740225891	0.2411415189	0.7139736589	0.0000000000	1.1900465602	0.0000000000	0.0000000000	0.0000000000
3.6781928758	0.2398743718	0.7129732796	0.0000000000	1.1920473187	0.0000000000	0.0000000000	0.0000000000
3.6823631625	0.2386009868	0.7119679757	0.0000000000	1.1940579267	0.0000000000	0.0000000000	0.0000000000
3.6865334492	0.2373214655	0.7109578273	0.0000000000	1.1960782234	0.0000000000	0.0000000000	0.0000000000
3.6907037359	0.2360359105	0.7099429155	0.0000000000	1.1981080470	0.0000000000	0.0000000000	0.0000000000
3.6948740226	0.2347444253	0.7089233219	0.0000000000	1.2001472343	0.0000000000	0.0000000000	0.0000000000
3.6990443093	0.2334471138	0.7078991286	0.0000000000	1.2021956207	0.0000000000	0.0000000000	0.0000000000
3.7032145960	0.2321440813	0.7068704187	0.0000000000	1.2042530405	0.0000000000	0.0000000000	0.0000000000
3.7073848827	0.2308354334	0.7058372756	0.0000000000	1.2063193268	0.0000000000	0.0000000000	0.0000000000
3.7115551694	0.2295212766	0.7047997834	0.0000000000	1.2083943112	0.0000000000	0.0000000000	0.0000000000
3.7157254561	0.2282017182	0.7037580268	0.0000000000	1.2104778244	0.0000000000	0.0000000000	0.0000000000
3.7198957428	0.2268768662	0.7027120910	0.0000000000	1.2125696960	0.0000000000	0.0000000000	0.0000000000
3.7240660295	0.2255468293	0.7016620619	0.0000000000	1.2146697542	0.0000000000	0.0000000000	0.0000000000
3.7282363162	0.2242117170	0.7006080259	0.0000000000	1.2167778263	0.0000000000	0.0000000000	0.0000000000
3.7324066030	0.2228716393	0.6995500698	0.0000000000	1.2188937384	0.0000000000	0.0000000000	0.0000000000
3.7365768897	0.2215267070	0.6984882811	0.0000000000	1.2210173157	0.0000000000	0.0000000000	0.0000000000
3.7407471764	0.2201770315	0.6974227478	0.0000000000	1.2231483823	0.0000000000	0.0000000000	0.0000000000
3.7449174631	0.2188227249	0.6963535584	0.0000000000	1.2252867612	0.0000000000	0.0000000000	0.0000000000
3.7490877498	0.2174638997	0.6952808017	0.0000000000	1.2274322746	0.0000000000	0.0000000000	0.0000000000
3.7532580365	0.2161006694	0.6942045672	0.0000000000	1.2295847436	0.0000000000	0.0000000000	0.0000000000
3.7574283232	0.2147331477	0.6931249448	0.0000000000	1.2317439884	0.0000000000	0.0000000000	0.0000000000
3.7615986099	0.2133614490	0.6920420248	0.0000000000	1.2339098284	0.0000000000	0.0000000000	0.0000000000
3.7657688966	0.2119856884	0.6909558980	0.0000000000	1.2360820820	0.0000000000	0.0000000000	0.0000000000
3.7699391833	0.2106059813	0.6898666556	0.0000000000	1.2382605669	0.0000000000	0.0000000000	0.0000000000
3.7741094700	0.2092224438	0.6887743891	0.0000000000	1.2404450998	0.0000000000	0.0000000000	0.0000000000
3.7782797567	0.2078351924	0.6876791907	0.0000000000	1.2426354967	0.0000000000	0.0000000000	0.0000000000
3.7824500434	0.2064443442	0.6865811526	0.0000000000	1.2448315728	0.0000000000	0.0000000000	0.0000000000
3.7866203301	0.2050500166	0.6854803676	0.0000000000	1.2470331427	0.0000000000	0.0000000000	0.0000000000
3.7907906169	0.2036523276	0.6843769290	0.0000000000	1.2492400200	0.0000000000	0.0000000000	0.0000000000
3.7949609036	0.2022513957	0.6832709301	0.0000000000	1.2514520178	0.0000000000	0.0000000000	0.0000000000
3.7991311903	0.2008473396	0.6821624648	0.0000000000	1.2536689485	0.0000000000	0.0000000000	0.0000000000
3.8033014770	0.1994402786	0.6810516271	0.0000000000	1.2558906237	0.0000000000	0.0000000000	0.0000000000
3.8074717637	0.1980303323	0.6799385116	0.0000000000	1.2581168547	0.0000000000	0.0000000000	0.0000000000
3.8116420504	0.1966176208	0.6788232130	0.0000000000	1.2603474519	0.0000000000	0.0000000000	0.0000000000
3.8158123371	0.1952022643	0.6777058264	0.0000000000	1.2625822252	0.0000000000	0.0000000000	0.0000000000
3.8199826238	0.1937843837	0.6765864469	0.0000000000	1.2648209842	0.0000000000	0.0000000000	0.0000000000
3.8241529105	0.1923640999	0.6754651702	0.0000000000	1.2670635375	0.0000000000	0.0000000000	0.0000000000
3.8283231972	0.1909415343	0.6743420922	0.0000000000	1.2693096937	0.0000000000	0.0000000000	0.0000000000
3.8324934839	0.1895168086	0.6732173087	0.0000000000	1.2715592606	0.0000000000	0.0000000000	0.0000000000
3.8366637706	0.1880900447	0.6720909161	0.0000000000	1.2738120457	0.0000000000	0.0000000000	0.0000000000
3.8408340573	0.1866613648	0.6709630110	0.0000000000	1.2760678561	0.0000000000	0.0000000000	0.0000000000
3.8450043440	0.1852308913	0.6698336898	0.0000000000	1.2783264984	0.0000000000	0.0000000000	0.0000000000
3.8491746308	0.1837987470	0.6687030496	0.0000000000	1.2805877789	0.0000000000	0.0000000000	0.0000000000
3.8533449175	0.1823650547	0.6675711872	0.0000000000	1.2828515035	0.0000000000	0.0000000000	0.0000000000
3.8575152042	0.1809299376	0.6664382000	0.0000000000	1.2851174780	0.0000000000	0.0000000000	0.0000000000
3.8616854909	0.1794935189	0.6653041852	0.0000000000	1.2873855075	0.0000000000	0.0000000000	0.0000000000
3.8658557776	0.1780559220	0.6641692403	0.0000000000	1.2896553973	0.0000000000	0.0000000000	0.0000000000
3.8700260643	0.1766172706	0.6630334629	0.0000000000	1.2919269522	0.0000000000	0.0000000000	0.0000000000
3.8741963510	0.1751776884	0.6618969506	0.0000000000	1.2941999767	0.0000000000	0.0000000000	0.0000000000
3.8783666377	0.1737372993	0.6607598013	0.0000000000	1.2964742753	0.0000000000	0.0000000000	0.0000000000
